# Blender v2.81 (sub 16) OBJ File: 'map.blend'
# www.blender.org
mtllib boundaries.mtl
o boundaries_Plane.001
v 1.000000 4.000000 0.000000
v 1.000000 4.000000 -2.000000
v 1.000000 4.000000 -9.511570
v 1.000000 4.000000 -7.511569
v -1.000000 4.000000 0.000000
v -1.000000 4.000000 -2.000000
v -1.000000 4.000000 -9.511570
v -1.000000 4.000000 -7.511569
v 0.000000 4.000000 0.000000
v 0.000000 4.000000 -2.000000
v 0.000000 4.000000 -7.511569
v 0.000000 4.000000 -9.511570
v 1.000000 3.000000 -17.862204
v 1.000000 3.000000 -15.862204
v -1.000000 3.000000 -17.862204
v -1.000000 3.000000 -15.862204
v 0.000000 3.000000 -15.862204
v 0.000000 3.000000 -17.862204
vt 0.000000 0.000000
vt 0.000000 0.000000
vt 0.000000 0.000000
vt 0.000000 0.000000
vt 0.000000 0.000000
vt 0.000000 0.000000
vt 0.000000 0.000000
vt 0.000000 0.000000
vt 0.000000 0.000000
vt 0.000000 0.000000
vt 0.000000 0.000000
vt 0.000000 0.000000
vt 0.000000 0.000000
vt 0.000000 0.000000
vt 0.000000 0.000000
vt 0.000000 0.000000
vt 0.000000 0.000000
vt 0.000000 0.000000
vn 0.0000 -1.0000 0.0000
usemtl Material.001
s off
f 1/1/1 9/2/1 5/3/1 6/4/1 10/5/1 2/6/1
f 4/7/1 11/8/1 8/9/1 7/10/1 12/11/1 3/12/1
f 13/13/1 14/14/1 17/15/1 16/16/1 15/17/1 18/18/1
