# Blender v2.83 (sub 0) OBJ File: 'map.blend'
# www.blender.org
mtllib ceilling window.mtl
o Plane.002_Plane.004
v -1.443737 0.000000 -1.443737
v 1.443737 0.000000 -1.443737
v -1.443737 -0.000000 1.443737
v 1.443737 -0.000000 1.443737
v 1.443737 0.200000 1.443737
v 1.443737 0.200000 -1.443737
v -1.443737 0.200000 -1.443737
v -1.443737 0.200000 1.443737
v -2.000000 -0.000000 2.000000
v -2.000000 0.000000 -2.000000
v 2.000000 0.000000 -2.000000
v 2.000000 -0.000000 2.000000
v 2.000000 0.200000 -2.000000
v 2.000000 0.200000 2.000000
v -2.000000 0.200000 2.000000
v -2.000000 0.200000 -2.000000
v 1.557439 0.063436 1.557439
v 1.557439 0.136563 1.557439
v -1.557439 0.136563 1.557439
v -1.557439 0.063436 1.557439
v -1.443737 0.063436 1.443737
v -1.443737 0.136563 1.443737
v -1.443737 0.063437 -1.443737
v -1.443737 0.136564 -1.443737
v 1.443737 0.136564 -1.443737
v 1.443737 0.063437 -1.443737
v 1.443737 0.136563 1.443737
v 1.443737 0.063436 1.443737
v 1.557439 0.136564 -1.557439
v 1.557439 0.063437 -1.557439
v -1.557439 0.063437 -1.557439
v -1.557439 0.136564 -1.557439
vt 0.860934 0.139066
vt 0.860934 0.139066
vt 0.139066 0.139066
vt 0.139066 0.139066
vt 1.000000 1.000000
vt 1.000000 1.000000
vt 0.000000 1.000000
vt 0.000000 1.000000
vt 0.000000 0.000000
vt 0.000000 0.000000
vt 1.000000 0.000000
vt 1.000000 0.000000
vt 0.860934 0.139066
vt 0.860934 0.139066
vt 0.139066 0.139066
vt 0.139066 0.139066
vt 0.139066 0.860934
vt 0.860934 0.860934
vt 0.860934 0.860934
vt 0.139066 0.860934
vt 0.860934 0.860934
vt 0.139066 0.860934
vt 0.139066 0.860934
vt 0.139066 0.860934
vt 0.860934 0.860934
vt 0.860934 0.860934
vt 0.139066 0.860934
vt 0.860934 0.860934
vt 0.139066 0.139066
vt 0.860934 0.139066
vt 0.860934 0.139066
vt 0.139066 0.139066
vn 0.0000 0.0000 1.0000
vn -1.0000 0.0000 0.0000
vn 1.0000 0.0000 0.0000
vn 0.0000 0.0000 -1.0000
vn 0.0000 -1.0000 -0.0000
vn 0.0000 1.0000 0.0000
usemtl None
s off
f 2/1/1 26/2/1 23/3/1 1/4/1
f 12/5/1 14/6/1 15/7/1 9/8/1
f 9/8/2 15/7/2 16/9/2 10/10/2
f 11/11/3 13/12/3 14/6/3 12/5/3
f 25/13/1 6/14/1 7/15/1 24/16/1
f 10/10/4 16/9/4 13/12/4 11/11/4
f 1/4/5 3/17/5 9/8/5 10/10/5
f 2/1/5 1/4/5 10/10/5 11/11/5
f 4/18/5 2/1/5 11/11/5 12/5/5
f 3/17/5 4/18/5 12/5/5 9/8/5
f 6/14/6 5/19/6 14/6/6 13/12/6
f 8/20/6 7/15/6 16/9/6 15/7/6
f 7/15/6 6/14/6 13/12/6 16/9/6
f 5/19/6 8/20/6 15/7/6 14/6/6
f 4/18/2 28/21/2 26/2/2 2/1/2
f 1/4/3 23/3/3 21/22/3 3/17/3
f 24/16/3 7/15/3 8/20/3 22/23/3
f 19/24/4 18/25/4 17/26/4 20/27/4
f 3/17/4 21/22/4 28/21/4 4/18/4
f 27/28/2 5/19/2 6/14/2 25/13/2
f 28/21/6 21/22/6 20/27/6 17/26/6
f 21/22/6 23/3/6 31/29/6 20/27/6
f 23/3/6 26/2/6 30/30/6 31/29/6
f 27/28/5 25/13/5 29/31/5 18/25/5
f 22/23/4 8/20/4 5/19/4 27/28/4
f 18/25/2 29/31/2 30/30/2 17/26/2
f 32/32/3 19/24/3 20/27/3 31/29/3
f 29/31/1 32/32/1 31/29/1 30/30/1
f 22/23/5 27/28/5 18/25/5 19/24/5
f 25/13/5 24/16/5 32/32/5 29/31/5
f 24/16/5 22/23/5 19/24/5 32/32/5
f 26/2/6 28/21/6 17/26/6 30/30/6
