# Blender v2.83 (sub 0) OBJ File: 'map.blend'
# www.blender.org
mtllib ground loot.mtl
o Plane.006_Plane.010
v 2.000000 -0.200000 -2.000000
v 2.000000 -0.200000 2.000000
v -2.000000 -0.200000 2.000000
v -2.000000 -0.200000 -2.000000
v -2.000000 0.000000 -2.000000
v -2.000000 0.000000 2.000000
v 2.000000 0.000000 2.000000
v 2.000000 0.000000 -2.000000
v -0.835580 0.000000 0.000000
v 0.000000 0.000000 0.835580
v 0.835580 0.000000 0.000000
v 0.000000 0.000000 -0.835580
v 0.000000 0.000000 0.698140
v 0.000000 0.000000 0.567886
v 0.698140 0.000000 0.000000
v 0.567886 0.000000 0.000000
v -0.567886 0.000000 0.000000
v -0.698140 0.000000 0.000000
v 0.000000 0.000000 -0.698140
v 0.000000 0.000000 -0.567886
v 0.000000 0.000000 2.000000
v 0.000000 0.000000 -2.000000
v 0.000000 -0.200000 2.000000
v 0.000000 -0.200000 -2.000000
v -2.000000 0.000000 0.000000
v 2.000000 0.000000 0.000000
v 2.000000 -0.200000 0.000000
v -2.000000 -0.200000 0.000000
v 0.000000 -0.200000 0.000000
v 0.417790 0.000000 0.417790
v -0.417790 0.000000 -0.417790
v 0.349070 0.000000 0.349070
v 0.283943 0.000000 0.283943
v -0.349070 0.000000 -0.349070
v -0.283943 0.000000 -0.283943
v -0.417790 0.000000 0.417790
v 0.417790 0.000000 -0.417790
v -0.349070 0.000000 0.349070
v -0.283943 0.000000 0.283943
v 0.349070 0.000000 -0.349070
v 0.283943 0.000000 -0.283943
v 0.000000 0.000000 0.000000
vt 0.500000 1.000000
vt 0.500000 1.000000
vt 0.000000 1.000000
vt 0.000000 1.000000
vt 0.000000 0.500000
vt 0.000000 0.500000
vt 0.000000 0.000000
vt 0.000000 0.000000
vt 1.000000 0.500000
vt 1.000000 0.500000
vt 1.000000 1.000000
vt 1.000000 1.000000
vt 0.500000 0.500000
vt 0.500000 0.000000
vt 0.500000 0.000000
vt 1.000000 0.000000
vt 1.000000 0.000000
vt 0.362828 0.500000
vt 0.362828 0.362828
vt 0.388421 0.388421
vt 0.388421 0.500000
vt 0.500000 0.362828
vt 0.637172 0.362828
vt 0.611579 0.388421
vt 0.500000 0.388421
vt 0.637172 0.500000
vt 0.637172 0.637172
vt 0.611579 0.611579
vt 0.611579 0.500000
vt 0.500000 0.637172
vt 0.362828 0.637172
vt 0.388421 0.611579
vt 0.500000 0.611579
vt 0.664176 0.335824
vt 0.500000 0.335824
vt 0.335824 0.335824
vt 0.335824 0.500000
vt 0.335824 0.664176
vt 0.500000 0.664176
vt 0.664176 0.664176
vt 0.664176 0.500000
vt 0.500000 0.500000
vn 0.0000 0.0000 -1.0000
vn -1.0000 0.0000 0.0000
vn 1.0000 0.0000 0.0000
vn 0.0000 -1.0000 0.0000
vn 0.0000 0.0000 1.0000
vn 0.0000 1.0000 0.0000
usemtl Material.006
s off
f 22/1/1 24/2/1 4/3/1 5/4/1
f 25/5/2 28/6/2 3/7/2 6/8/2
f 26/9/3 27/10/3 1/11/3 8/12/3
f 29/13/4 24/2/4 1/11/4 27/10/4
f 21/14/5 23/15/5 2/16/5 7/17/5
f 38/18/6 13/19/6 14/20/6 39/21/6
f 32/22/6 15/23/6 16/24/6 33/25/6
f 40/26/6 19/27/6 20/28/6 41/29/6
f 34/30/6 18/31/6 17/32/6 35/33/6
f 6/8/5 3/7/5 23/15/5 21/14/5
f 28/6/4 4/3/4 24/2/4 29/13/4
f 8/12/1 1/11/1 24/2/1 22/1/1
f 3/7/4 28/6/4 29/13/4 23/15/4
f 23/15/4 29/13/4 27/10/4 2/16/4
f 7/17/3 2/16/3 27/10/3 26/9/3
f 5/4/2 4/3/2 28/6/2 25/5/2
f 19/27/6 34/30/6 35/33/6 20/28/6
f 13/19/6 32/22/6 33/25/6 14/20/6
f 15/23/6 40/26/6 41/29/6 16/24/6
f 18/31/6 38/18/6 39/21/6 17/32/6
f 11/34/6 30/35/6 7/17/6 26/9/6
f 7/17/6 30/35/6 10/36/6 21/14/6
f 10/36/6 36/37/6 6/8/6 21/14/6
f 6/8/6 36/37/6 9/38/6 25/5/6
f 9/38/6 31/39/6 5/4/6 25/5/6
f 5/4/6 31/39/6 12/40/6 22/1/6
f 12/40/6 37/41/6 8/12/6 22/1/6
f 8/12/6 37/41/6 11/34/6 26/9/6
usemtl Material.007
f 32/22/6 13/19/6 10/36/6 30/35/6
f 42/42/6 41/29/6 20/28/6 35/33/6
f 40/26/6 15/23/6 11/34/6 37/41/6
f 34/30/6 19/27/6 12/40/6 31/39/6
f 38/18/6 18/31/6 9/38/6 36/37/6
f 18/31/6 34/30/6 31/39/6 9/38/6
f 39/21/6 42/42/6 35/33/6 17/32/6
f 15/23/6 32/22/6 30/35/6 11/34/6
f 14/20/6 33/25/6 42/42/6 39/21/6
f 13/19/6 38/18/6 36/37/6 10/36/6
f 19/27/6 40/26/6 37/41/6 12/40/6
f 33/25/6 16/24/6 41/29/6 42/42/6
