# Blender v2.83 (sub 0) OBJ File: 'map.blend'
# www.blender.org
mtllib pillar.mtl
o Plane.007_Plane.011
v -0.287412 0.000000 0.287412
v 0.287412 0.000000 0.287412
v -0.287412 0.000000 -0.287412
v 0.287412 0.000000 -0.287412
v -0.287412 4.000000 -0.287412
v -0.287412 4.000000 0.287412
v 0.287412 4.000000 0.287412
v 0.287412 4.000000 -0.287412
v -0.287412 2.000000 -0.287412
v 0.287412 2.000000 -0.287412
v 0.287412 2.000000 0.287412
v -0.287412 2.000000 0.287412
vt 0.000000 0.000000
vt 0.000000 1.000000
vt 1.000000 1.000000
vt 1.000000 0.000000
vt 0.000000 0.000000
vt 1.000000 0.000000
vt 1.000000 1.000000
vt 0.000000 1.000000
vt 1.000000 1.000000
vt 0.000000 1.000000
vt 0.000000 0.000000
vt 1.000000 0.000000
vn 0.0000 -1.0000 0.0000
vn 0.0000 1.0000 0.0000
vn 0.0000 0.0000 -1.0000
vn 0.0000 0.0000 1.0000
vn 1.0000 0.0000 0.0000
vn -1.0000 0.0000 0.0000
usemtl Material.008
s off
f 1/1/1 3/2/1 4/3/1 2/4/1
f 6/5/2 7/6/2 8/7/2 5/8/2
f 10/9/3 9/10/3 5/8/3 8/7/3
f 12/11/4 11/12/4 7/6/4 6/5/4
f 11/12/5 10/9/5 8/7/5 7/6/5
f 9/10/6 12/11/6 6/5/6 5/8/6
usemtl Material.009
f 3/2/6 1/1/6 12/11/6 9/10/6
f 2/4/5 4/3/5 10/9/5 11/12/5
f 1/1/4 2/4/4 11/12/4 12/11/4
f 4/3/3 3/2/3 9/10/3 10/9/3
