# Blender v2.83 (sub 0) OBJ File: 'map.blend'
# www.blender.org
mtllib pillar.mtl
o Plane.008_Plane.012
v -0.300000 0.000000 0.300000
v 0.300000 0.000000 0.300000
v -0.300000 0.000000 -0.300000
v 0.300000 0.000000 -0.300000
v -0.300000 4.000000 -0.300000
v -0.300000 4.000000 0.300000
v 0.300000 4.000000 0.300000
v 0.300000 4.000000 -0.300000
v 0.300000 2.000000 -0.300000
v 0.300000 2.000000 0.300000
v -0.300000 2.000000 0.300000
v -0.300000 2.000000 -0.300000
vt 0.000000 0.000000
vt 0.000000 1.000000
vt 1.000000 1.000000
vt 1.000000 0.000000
vt 0.000000 0.000000
vt 1.000000 0.000000
vt 1.000000 1.000000
vt 0.000000 1.000000
vt 1.000000 0.000000
vt 1.000000 1.000000
vt 0.000000 1.000000
vt 0.000000 0.000000
vn 0.0000 -1.0000 0.0000
vn 0.0000 1.0000 0.0000
vn 1.0000 0.0000 0.0000
vn -1.0000 0.0000 0.0000
vn 0.0000 0.0000 -1.0000
vn 0.0000 0.0000 1.0000
usemtl Material.010
s off
f 1/1/1 3/2/1 4/3/1 2/4/1
f 6/5/2 7/6/2 8/7/2 5/8/2
f 10/9/3 9/10/3 8/7/3 7/6/3
f 12/11/4 11/12/4 6/5/4 5/8/4
f 9/10/5 12/11/5 5/8/5 8/7/5
f 11/12/6 10/9/6 7/6/6 6/5/6
usemtl Material.011
f 1/1/6 2/4/6 10/9/6 11/12/6
f 4/3/5 3/2/5 12/11/5 9/10/5
f 3/2/4 1/1/4 11/12/4 12/11/4
f 2/4/3 4/3/3 9/10/3 10/9/3
