# Blender v2.83 (sub 0) OBJ File: 'map.blend'
# www.blender.org
mtllib wall bot.mtl
o Plane.001_Plane.003
v 2.000000 0.000000 -0.000000
v 2.000000 -0.000000 0.200000
v 2.000000 2.000000 0.000000
v 2.000000 2.000000 0.200000
v 0.718986 1.047826 0.200000
v 1.351769 1.047826 0.200000
v 1.035378 1.459135 0.200000
v 0.929914 1.047826 0.200000
v 1.140841 1.047826 0.200000
v 0.929914 -0.000000 0.200000
v 1.140841 -0.000000 0.200000
v -2.000000 0.000000 -0.000000
v -2.000000 -0.000000 0.200000
v -2.000000 2.000000 0.000000
v -2.000000 2.000000 0.200000
v -0.718986 1.047826 0.200000
v -1.351769 1.047826 0.200000
v -1.035378 1.459135 0.200000
v -0.929914 1.047826 0.200000
v -1.140841 1.047826 0.200000
v -0.929914 -0.000000 0.200000
v -1.140841 -0.000000 0.200000
v -0.000000 0.000000 -0.000000
v -0.000000 2.000000 0.200000
v -0.000000 2.000000 0.000000
v 0.000000 -0.000000 0.200000
vt 0.000000 0.000000
vt 0.333333 0.000000
vt 0.000000 1.000000
vt 0.666667 0.000000
vt 1.000000 0.000000
vt 0.333333 0.000000
vt 0.666667 0.000000
vt 0.000000 0.000000
vt 0.000000 1.000000
vt 0.333333 0.000000
vt 0.666667 0.000000
vt 1.000000 0.000000
vt 0.666667 0.000000
vt 0.333333 0.000000
vt 0.500000 0.500000
vt 1.000000 0.500000
vt 1.000000 1.000000
vt 0.500000 1.000000
vt 1.000000 0.500000
vt 1.000000 1.000000
vt 0.500000 0.500000
vt 0.000000 0.000000
vt 1.000000 1.000000
vt 1.000000 0.500000
vt 1.000000 1.000000
vt 1.000000 0.500000
vn 0.0000 0.0000 1.0000
vn -0.0000 0.0000 -1.0000
vn 1.0000 0.0000 0.0000
vn 0.0000 1.0000 0.0000
vn -1.0000 0.0000 0.0000
usemtl Material.004
s off
f 5/1/1 8/2/1 7/3/1
f 9/4/1 6/5/1 7/3/1
f 9/4/1 8/2/1 10/6/1 11/7/1
f 8/2/1 9/4/1 7/3/1
f 16/8/1 18/9/1 19/10/1
f 20/11/1 18/9/1 17/12/1
f 20/11/1 22/13/1 21/14/1 19/10/1
f 19/10/1 18/9/1 20/11/1
usemtl Material.005
f 25/15/2 3/16/2 1/17/2 23/18/2
f 3/16/3 4/19/3 2/20/3 1/17/3
f 24/21/4 4/19/4 3/16/4 25/15/4
f 4/19/1 24/21/1 7/3/1
f 7/3/1 24/21/1 5/1/1
f 7/3/1 6/5/1 4/19/1
f 4/19/1 6/5/1 2/20/1
f 24/21/1 26/22/1 5/1/1
f 5/1/1 26/22/1 10/6/1 8/2/1
f 6/5/1 9/4/1 11/7/1 2/20/1
f 25/15/2 23/18/2 12/23/2 14/24/2
f 14/24/5 12/23/5 13/25/5 15/26/5
f 24/21/4 25/15/4 14/24/4 15/26/4
f 15/26/1 18/9/1 24/21/1
f 18/9/1 16/8/1 24/21/1
f 18/9/1 15/26/1 17/12/1
f 15/26/1 13/25/1 17/12/1
f 24/21/1 16/8/1 26/22/1
f 16/8/1 19/10/1 21/14/1 26/22/1
f 17/12/1 13/25/1 22/13/1 20/11/1
