# Blender v2.83 (sub 0) OBJ File: 'map.blend'
# www.blender.org
mtllib wall bot.mtl
o Plane.009
v 2.000000 0.000000 -0.000000
v 2.000000 0.000000 0.200000
v 2.000000 2.020000 -0.000000
v 0.568638 1.047826 0.200000
v 1.201422 1.047826 0.200000
v 0.885030 1.459135 0.200000
v 0.779566 1.047826 0.200000
v 0.990494 1.047826 0.200000
v 0.779566 0.000000 0.200000
v 0.990494 0.000000 0.200000
v 2.000000 2.020000 0.157345
v 2.000000 1.977345 0.200000
v -2.000000 0.000000 -0.000000
v -2.000000 0.000000 0.200000
v -2.000000 2.020000 -0.000000
v -0.568638 1.047826 0.200000
v -1.201422 1.047826 0.200000
v -0.885030 1.459135 0.200000
v -0.779566 1.047826 0.200000
v -0.990494 1.047826 0.200000
v -0.779566 0.000000 0.200000
v -0.990494 0.000000 0.200000
v 0.000000 0.000000 -0.000000
v 0.000000 2.020000 -0.000000
v 0.000000 0.000000 0.200000
v -2.000000 2.020000 0.157345
v -2.000000 1.977345 0.200000
v 0.000000 1.977345 0.200000
v 0.000000 2.020000 0.157345
vt 0.000000 0.000000
vt 0.333333 0.000000
vt 0.000000 1.000000
vt 0.666667 0.000000
vt 1.000000 0.000000
vt 0.333333 0.000000
vt 0.666667 0.000000
vt 0.500000 1.000000
vt 1.000000 1.000000
vt 0.000000 0.000000
vt 0.000000 1.000000
vt 0.333333 0.000000
vt 0.666667 0.000000
vt 1.000000 0.000000
vt 0.666667 0.000000
vt 0.333333 0.000000
vt 1.000000 1.000000
vt 0.500000 0.500000
vt 1.000000 0.500000
vt 0.489336 0.489336
vt 1.000000 0.500000
vt 1.000000 0.510664
vt 1.000000 1.000000
vt 0.500000 0.500000
vt 0.000000 0.000000
vt 1.000000 0.500000
vt 1.000000 1.000000
vt 1.000000 0.510664
vt 1.000000 0.500000
vn 0.0000 0.0000 1.0000
vn 0.0000 -1.0000 0.0000
vn 0.0000 -0.0000 -1.0000
vn 1.0000 0.0000 0.0000
vn 0.0000 1.0000 0.0000
vn 0.0000 0.7071 0.7071
vn -1.0000 0.0000 0.0000
usemtl Material.004
s off
f 4/1/1 7/2/1 6/3/1
f 8/4/1 5/5/1 6/3/1
f 8/4/1 7/2/1 9/6/1 10/7/1
f 7/2/1 8/4/1 6/3/1
f 9/6/2 23/8/2 1/9/2 10/7/2
f 16/10/1 18/11/1 19/12/1
f 20/13/1 18/11/1 17/14/1
f 20/13/1 22/15/1 21/16/1 19/12/1
f 19/12/1 18/11/1 20/13/1
f 21/16/2 22/15/2 13/17/2 23/8/2
usemtl Material.005
f 24/18/3 3/19/3 1/9/3 23/8/3
f 4/1/1 6/3/1 28/20/1
f 3/19/4 11/21/4 12/22/4 2/23/4 1/9/4
f 29/24/5 11/21/5 3/19/5 24/18/5
f 4/1/1 25/25/1 9/6/1 7/2/1
f 5/5/1 8/4/1 10/7/1 2/23/1
f 28/20/6 12/22/6 11/21/6 29/24/6
f 5/5/1 2/23/1 12/22/1
f 28/20/1 6/3/1 12/22/1
f 6/3/1 5/5/1 12/22/1
f 25/25/1 4/1/1 28/20/1
f 1/9/2 2/23/2 10/7/2
f 25/25/2 23/8/2 9/6/2
f 24/18/3 23/8/3 13/17/3 15/26/3
f 16/10/1 28/20/1 18/11/1
f 15/26/7 13/17/7 14/27/7 27/28/7 26/29/7
f 29/24/5 24/18/5 15/26/5 26/29/5
f 16/10/1 19/12/1 21/16/1 25/25/1
f 17/14/1 14/27/1 22/15/1 20/13/1
f 28/20/6 29/24/6 26/29/6 27/28/6
f 17/14/1 27/28/1 14/27/1
f 28/20/1 27/28/1 18/11/1
f 18/11/1 27/28/1 17/14/1
f 25/25/1 28/20/1 16/10/1
f 13/17/2 22/15/2 14/27/2
f 25/25/2 21/16/2 23/8/2
