# Blender v2.83 (sub 0) OBJ File: 'map.blend'
# www.blender.org
mtllib wall.mtl
o Plane.004_Plane.006
v -2.000000 4.000000 0.000000
v 2.000000 4.000000 0.000000
v -2.000000 0.000000 -0.000000
v 2.000000 0.000000 -0.000000
v 2.000000 -0.000000 0.200000
v 2.000000 4.000000 0.200000
v -2.000000 4.000000 0.200000
v -2.000000 -0.000000 0.200000
v -2.000000 2.000000 0.000000
v 2.000000 2.000000 0.000000
v 2.000000 2.000000 0.200000
v -2.000000 2.000000 0.200000
v -2.000000 3.757073 0.000000
v -2.000000 3.757073 0.200000
v 2.000000 3.757073 0.000000
v 2.000000 3.757073 0.200000
v 2.000000 0.242926 -0.000000
v 2.000000 0.242926 0.200000
v -2.000000 0.242926 -0.000000
v -2.000000 0.242926 0.200000
v -2.000000 3.757073 -0.058758
v -2.000000 4.000000 -0.058758
v 2.000000 4.000000 -0.058758
v 2.000000 0.242926 -0.058758
v 2.000000 0.000000 -0.058759
v -2.000000 0.000000 -0.058759
v 2.000000 0.242926 0.258758
v 2.000000 -0.000000 0.258758
v -2.000000 3.757073 0.258758
v -2.000000 4.000000 0.258759
v 2.000000 4.000000 0.258759
v -2.000000 -0.000000 0.258758
v 2.000000 3.757073 -0.058758
v 2.000000 3.757073 0.258758
v -2.000000 0.242926 -0.058758
v -2.000000 0.242926 0.258758
vt 0.000000 0.250000
vt 0.000000 0.250000
vt 0.000000 0.000000
vt 0.000000 0.000000
vt 0.000000 0.000000
vt 0.000000 0.250000
vt 1.000000 0.000000
vt 1.000000 0.000000
vt 0.000000 0.500000
vt 1.000000 0.500000
vt 1.000000 0.250000
vt 1.000000 0.250000
vt 1.000000 0.500000
vt 0.000000 0.500000
vt 1.000000 0.250000
vt 1.000000 0.000000
vt 0.000000 0.000000
vt 0.000000 0.250000
vt 1.000000 0.250000
vt 1.000000 0.000000
vt 0.000000 1.000000
vt 0.000000 0.750000
vt 0.000000 0.750000
vt 0.000000 1.000000
vt 1.000000 1.000000
vt 1.000000 1.000000
vt 0.000000 1.000000
vt 1.000000 0.750000
vt 1.000000 0.750000
vt 0.000000 0.750000
vt 1.000000 0.750000
vt 1.000000 1.000000
vt 1.000000 0.750000
vt 1.000000 1.000000
vt 0.000000 0.750000
vt 0.000000 1.000000
vn -1.0000 0.0000 0.0000
vn 0.0000 1.0000 0.0000
vn 0.0000 -0.0000 1.0000
vn 1.0000 0.0000 0.0000
vn 0.0000 0.0000 -1.0000
vn 0.0000 -1.0000 0.0000
usemtl Material.004
s off
f 13/1/1 14/2/1 7/3/1 1/4/1
f 13/1/1 1/4/1 22/5/1 21/6/1
f 1/4/2 7/3/2 6/7/2 2/8/2
f 14/2/3 12/9/3 11/10/3 16/11/3
f 15/12/4 16/11/4 11/10/4 10/13/4
f 13/1/5 15/12/5 10/13/5 9/14/5
f 2/8/4 15/12/4 33/15/4 23/16/4
f 2/8/4 6/7/4 16/11/4 15/12/4
f 9/14/1 12/9/1 14/2/1 13/1/1
f 22/5/5 23/16/5 33/15/5 21/6/5
f 30/17/3 29/18/3 34/19/3 31/20/3
f 16/11/4 6/7/4 31/20/4 34/19/4
f 1/4/2 2/8/2 23/16/2 22/5/2
f 7/3/1 14/2/1 29/18/1 30/17/1
f 15/12/6 13/1/6 21/6/6 33/15/6
f 6/7/2 7/3/2 30/17/2 31/20/2
f 14/2/6 16/11/6 34/19/6 29/18/6
usemtl Material.005
f 3/21/1 19/22/1 35/23/1 26/24/1
f 4/25/6 5/26/6 8/27/6 3/21/6
f 17/28/4 18/29/4 5/26/4 4/25/4
f 19/22/1 20/30/1 12/9/1 9/14/1
f 5/26/4 18/29/4 27/31/4 28/32/4
f 3/21/1 8/27/1 20/30/1 19/22/1
f 12/9/3 20/30/3 18/29/3 11/10/3
f 10/13/4 11/10/4 18/29/4 17/28/4
f 9/14/5 10/13/5 17/28/5 19/22/5
f 35/23/5 24/33/5 25/34/5 26/24/5
f 36/35/3 32/36/3 28/32/3 27/31/3
f 20/30/1 8/27/1 32/36/1 36/35/1
f 17/28/4 4/25/4 25/34/4 24/33/4
f 4/25/6 3/21/6 26/24/6 25/34/6
f 18/29/2 20/30/2 36/35/2 27/31/2
f 8/27/6 5/26/6 28/32/6 32/36/6
f 19/22/2 17/28/2 24/33/2 35/23/2
